<svg xmlns="http://www.w3.org/2000/svg" width="215" height="58" viewBox="0 0 215 58" fill="white"><path d="M213.243 15.4916C213.027 15.4916 212.833 15.4543 212.647 15.3872C212.468 15.3201 212.311 15.2157 212.185 15.089C212.058 14.9548 211.953 14.7982 211.886 14.6119C211.819 14.4255 211.782 14.2167 211.782 13.9782C211.782 13.7396 211.819 13.5309 211.894 13.3445C211.968 13.1581 212.073 13.0016 212.207 12.8674C212.341 12.7332 212.498 12.6363 212.669 12.5692C212.848 12.5021 213.034 12.4648 213.243 12.4648C213.467 12.4648 213.661 12.5021 213.847 12.5692C214.026 12.6363 214.182 12.7407 214.309 12.8674C214.436 13.0016 214.533 13.1581 214.607 13.3445C214.675 13.5309 214.712 13.7396 214.712 13.9782C214.712 14.2167 214.675 14.4255 214.6 14.6119C214.525 14.7982 214.421 14.9622 214.287 15.089C214.153 15.2232 213.996 15.3201 213.817 15.3872C213.638 15.4543 213.452 15.4916 213.251 15.4916H213.243ZM213.243 15.1635C213.564 15.1635 213.832 15.0592 214.033 14.8579C214.235 14.6566 214.339 14.3584 214.339 13.9782C214.339 13.598 214.235 13.3072 214.033 13.0985C213.832 12.8898 213.564 12.7928 213.243 12.7928C212.923 12.7928 212.662 12.8972 212.46 13.0985C212.259 13.2998 212.162 13.598 212.162 13.9782C212.162 14.3584 212.259 14.6491 212.46 14.8579C212.662 15.0666 212.923 15.1635 213.243 15.1635ZM212.691 13.2252H213.236C213.37 13.2252 213.474 13.2401 213.549 13.2625C213.631 13.2849 213.69 13.3221 213.735 13.3594C213.78 13.3967 213.81 13.4489 213.825 13.5011C213.84 13.5532 213.847 13.6129 213.847 13.6651C213.847 13.7694 213.832 13.8514 213.795 13.9111C213.758 13.9707 213.698 14.0229 213.608 14.0602L213.914 14.664H213.549L213.28 14.1273H213.012V14.664H212.684V13.2178L212.691 13.2252ZM213.273 13.8589C213.392 13.8589 213.467 13.844 213.489 13.7993C213.512 13.762 213.526 13.7173 213.526 13.6651C213.526 13.6203 213.512 13.5831 213.474 13.5458C213.444 13.5085 213.362 13.4936 213.228 13.4936H213.02V13.8514H213.273V13.8589ZM208.77 13.9409C207.466 12.845 205.594 12.3008 203.142 12.3008H194.986L194.166 16.1625L193.584 18.8985L188.589 18.9209L187.672 12.3083H181.045L177.407 18.8761L169.885 18.8612L170.243 17.2062H175.096L177.839 12.3008H159.299L159.053 13.4489C157.592 12.3232 155.541 11.764 152.917 11.764C151.053 11.764 149.428 12.0548 148.057 12.6363C147.632 12.8152 147.244 13.0165 146.886 13.2401L147.855 12.3008H141.384L133.445 19.9124L135.04 12.3008H129.262L126.377 25.9286H120.712C120.413 27.0916 119.951 27.9563 119.325 28.5155C118.706 29.0746 117.901 29.3579 116.917 29.3579C114.509 29.3579 113.309 27.755 113.309 24.5419C113.309 22.9987 113.54 21.627 114.002 20.4342C114.464 19.2414 115.083 18.3245 115.866 17.6833C116.649 17.0422 117.528 16.7216 118.512 16.7216C120.398 16.7216 121.427 17.8324 121.614 20.0615L127.361 19.3085C127.22 16.9602 126.4 15.1188 124.909 13.7694C123.418 12.4275 121.427 11.7566 118.937 11.7566C116.649 11.7566 114.621 12.3306 112.847 13.4712C111.072 14.6119 109.701 16.155 108.724 18.1008C108.5 18.5481 108.306 19.0178 108.127 19.4874C107.963 18.2499 107.628 17.1391 107.106 16.1625C106.346 14.7311 105.265 13.6353 103.871 12.8823C102.477 12.1293 100.836 11.7566 98.9504 11.7566C96.6244 11.7566 94.5445 12.3455 92.7105 13.5309C91.0481 14.6044 89.7285 16.0134 88.7594 17.7355C88.5954 16.1327 87.9617 14.8653 86.8509 13.9335C85.5463 12.8376 83.6751 12.2934 81.2224 12.2934H73.0666L68.5265 33.7712H74.0283L75.5938 26.3684H78.8144L80.9465 33.7712H86.7838L83.9584 25.4365C85.2182 24.9445 86.247 24.2512 87.0373 23.3715C87 23.8337 86.9702 24.2959 86.9702 24.773C86.9702 26.7561 87.3504 28.4707 88.1108 29.9021C88.8712 31.3335 89.9522 32.4293 91.3463 33.1823C92.7404 33.9353 94.3805 34.308 96.2666 34.308C98.5925 34.308 100.672 33.7191 102.506 32.5337C104.34 31.3484 105.757 29.7679 106.748 27.7923C106.979 27.3376 107.173 26.8679 107.352 26.3908C107.613 28.6198 108.388 30.409 109.671 31.7584C111.288 33.4507 113.547 34.3005 116.455 34.3005C119.206 34.3005 121.472 33.5625 123.269 32.0864C124.335 31.2142 125.147 30.1332 125.736 28.8509L124.7 33.7563H130.478L131.894 27.1661L134.72 24.5494L137.97 33.7563H144.076L143.121 31.2664C143.822 32.1982 144.761 32.9139 145.939 33.4209C147.296 34.0023 148.921 34.2931 150.83 34.2931C153.7 34.2931 155.966 33.6296 157.644 32.2952C159.321 30.9607 160.156 29.1491 160.156 26.8679C160.156 25.2054 159.671 23.8784 158.71 22.8944C157.748 21.9103 156.235 21.1872 154.17 20.725L151.792 20.1808C151.068 20.0167 150.532 19.7856 150.181 19.4725C149.831 19.1594 149.652 18.7568 149.652 18.2574C149.652 17.6386 149.905 17.154 150.42 16.8111C150.934 16.4682 151.657 16.2967 152.597 16.2967C153.603 16.2967 154.356 16.5054 154.87 16.9155C155.385 17.3255 155.705 17.9964 155.847 18.9134L161.476 18.2797C161.446 17.8921 161.386 17.5193 161.312 17.1689H164.435L160.916 33.7414H166.694L169.542 20.4491L174.291 24.4599L169.139 33.7489H175.006L175.551 32.6977L181.216 29.507L184.489 32.1833L184.638 33.7414H190.654H195.948L197.513 26.3386H200.734L202.866 33.7414H208.703L205.878 25.4067C207.421 24.8029 208.614 23.9157 209.456 22.7304C210.298 21.545 210.716 20.1658 210.716 18.5779C210.716 16.5502 210.067 14.9921 208.763 13.8962L208.77 13.9409ZM82.2288 21.1797C81.6175 21.6643 80.7303 21.9029 79.5674 21.9029H76.5555L77.6365 16.7589H80.283C82.1915 16.7589 83.1383 17.5342 83.1383 19.0774C83.1383 20.0018 82.8326 20.7026 82.2213 21.1797H82.2288ZM101.478 25.526C100.978 26.7412 100.307 27.6805 99.4648 28.3514C98.6224 29.0224 97.683 29.3579 96.6393 29.3579C95.4763 29.3579 94.5817 28.9553 93.9481 28.1576C93.3144 27.3525 93.0013 26.2119 93.0013 24.7283C93.0013 23.1628 93.2548 21.7761 93.7542 20.561C94.2537 19.3458 94.9247 18.4065 95.7671 17.7355C96.6095 17.0646 97.5488 16.7291 98.5925 16.7291C99.7555 16.7291 100.65 17.1317 101.284 17.9293C101.917 18.7345 102.231 19.8751 102.231 21.3586C102.231 22.9242 101.977 24.3108 101.478 25.526ZM149.935 24.9967L152.194 25.5111C152.917 25.6751 153.454 25.9137 153.804 26.2342C154.155 26.5548 154.334 26.9797 154.334 27.4941C154.334 28.1949 154.05 28.7391 153.491 29.1193C152.932 29.4995 152.149 29.6934 151.143 29.6934C150.017 29.6934 149.138 29.4399 148.496 28.9255C147.855 28.4111 147.505 27.6805 147.445 26.7113H141.697C141.705 27.0692 141.735 27.4121 141.779 27.7476L139.103 20.7846L144.814 15.253C144.165 16.2669 143.837 17.4373 143.837 18.7718C143.837 20.397 144.336 21.7239 145.343 22.7602C146.342 23.7964 147.878 24.5419 149.943 25.0041L149.935 24.9967ZM181.746 25.9435L177.191 28.5229L179.45 24.0052L175.871 20.9784H181.015L183.602 15.9836L184.258 20.9784L189.767 21.0157L184.668 24.1021L185.302 28.9553L181.738 25.9435H181.746ZM190.58 33.1748L189.447 25.0116L192.749 22.9317L190.58 33.1748ZM204.156 21.1797C203.544 21.6643 202.657 21.9029 201.494 21.9029H198.482L199.563 16.7589H202.21C204.118 16.7589 205.065 17.5342 205.065 19.0774C205.065 20.0018 204.759 20.7026 204.148 21.1797H204.156Z" fill="var(--global--color-logo)"></path><path d="M84.2491 49.889V39.1836H91.9128V41.5543H87.0522V43.2615H91.6146V45.6322H87.0522V47.5183H92.2259L91.9874 49.889H84.2491Z" fill="white"></path><path d="M100.33 49.889L96.4753 43.7535V49.889H93.7468V39.1836H96.2666L100.121 45.3191V39.1836H102.849V49.889H100.33Z" fill="white"></path><path d="M104.974 49.889V39.1836H112.638V41.5543H107.777V43.2615H112.34V45.6322H107.777V47.5183H112.951L112.712 49.889H104.974Z" fill="white"></path><path d="M120.525 49.889L118.773 46.1988H117.215V49.889H114.472V39.1836H118.699C120.1 39.1836 121.159 39.4743 121.882 40.0484C122.605 40.6224 122.97 41.4648 122.97 42.5756C122.97 43.2689 122.836 43.8728 122.568 44.3872C122.299 44.909 121.904 45.3191 121.383 45.6173L123.574 49.889H120.533H120.525ZM118.624 43.9623C119.176 43.9623 119.571 43.8579 119.824 43.6491C120.078 43.4404 120.197 43.1124 120.197 42.6576C120.197 42.2029 120.063 41.9121 119.787 41.7034C119.511 41.5021 119.094 41.3977 118.535 41.3977H117.215V43.9623H118.624Z" fill="white"></path><path d="M131.492 46.0945H129.784V43.7685H134.145V48.6441C133.534 49.1361 132.833 49.5089 132.036 49.7698C131.238 50.0307 130.411 50.1574 129.553 50.1574C127.876 50.1574 126.579 49.6729 125.669 48.7112C124.76 47.7495 124.305 46.3778 124.305 44.596C124.305 43.3957 124.514 42.367 124.939 41.5171C125.356 40.6598 125.96 40.0186 126.735 39.5788C127.518 39.1389 128.442 38.9153 129.508 38.9153C130.768 38.9153 131.79 39.2209 132.572 39.8322C133.355 40.4436 133.84 41.2934 134.019 42.3968L131.141 42.6801C131.029 42.2179 130.843 41.8824 130.582 41.6662C130.321 41.45 129.948 41.3456 129.479 41.3456C128.741 41.3456 128.189 41.6065 127.831 42.1358C127.473 42.6577 127.294 43.4554 127.294 44.5289C127.294 45.6024 127.496 46.4598 127.891 46.9742C128.293 47.4811 128.927 47.742 129.814 47.742C130.44 47.742 131.007 47.6153 131.492 47.3544V46.1094V46.0945Z" fill="white"></path><path d="M138.149 49.889V45.7365L134.548 39.1836H137.664L139.595 43.2764L141.563 39.1836H144.59L141.034 45.7365V49.889H138.141H138.149Z" fill="white"></path><path d="M148.057 49.889V39.1836H152.269C154.035 39.1836 155.385 39.6309 156.302 40.518C157.219 41.4052 157.681 42.7098 157.681 44.417C157.681 46.1242 157.196 47.5257 156.235 48.4725C155.273 49.4193 153.894 49.889 152.105 49.889H148.057ZM152.149 47.4587C153.849 47.4587 154.699 46.4746 154.699 44.5065C154.699 43.5299 154.498 42.7993 154.11 42.3222C153.715 41.845 153.111 41.6065 152.306 41.6065H150.942V47.4512H152.157L152.149 47.4587Z" fill="white"></path><path d="M165.561 49.889L163.809 46.1988H162.251V49.889H159.507V39.1836H163.734C165.136 39.1836 166.195 39.4743 166.918 40.0484C167.641 40.6224 168.006 41.4648 168.006 42.5756C168.006 43.2689 167.872 43.8728 167.604 44.3872C167.335 44.909 166.94 45.3191 166.418 45.6173L168.61 49.889H165.568H165.561ZM163.66 43.9623C164.212 43.9623 164.607 43.8579 164.86 43.6491C165.114 43.4404 165.233 43.1124 165.233 42.6576C165.233 42.2029 165.099 41.9121 164.823 41.7034C164.547 41.5021 164.13 41.3977 163.57 41.3977H162.251V43.9623H163.66Z" fill="white"></path><path d="M169.862 49.889V39.1836H172.74V49.889H169.862Z" fill="white"></path><path d="M181.455 49.889L177.601 43.7535V49.889H174.872V39.1836H177.392L181.246 45.3191V39.1836H183.975V49.889H181.455Z" fill="white"></path><path d="M192.608 49.889L190.043 45.252L188.977 46.4373V49.889H186.099V39.1836H188.977V43.0677L192.228 39.1836H195.359L191.952 43.2317L195.746 49.889H192.6H192.608Z" fill="white"></path><path d="M60.9149 22.1787H37.6478L30.4388 0L23.2745 22.1787H0L18.8239 35.8437L11.6373 58L30.4612 44.2977L49.3149 57.9776L42.1134 35.8288L60.9149 22.1712V22.1787ZM46.6236 54.2799L30.8787 42.8514L30.4612 42.5532L14.3285 54.2949L20.4864 35.2995L4.36118 23.5951H24.3033L24.4599 23.1031C24.5494 22.8347 25.9733 18.4213 27.4792 13.7545L30.4388 4.59229L36.619 23.5951H56.5537L40.4434 35.292L46.6162 54.2799H46.6236ZM26.428 29.8051C26.6293 29.7455 26.8828 29.7157 27.1884 29.7157H28.4111V32.0715H27.0393C26.7635 32.0715 26.5324 32.0416 26.3535 31.982C26.1745 31.9224 26.0254 31.8404 25.9211 31.736C25.8167 31.6316 25.7422 31.5049 25.7049 31.3483C25.6676 31.1992 25.6452 31.0352 25.6452 30.8488C25.6452 30.6997 25.6676 30.5581 25.7198 30.4165C25.7645 30.2748 25.8465 30.1555 25.9658 30.0512C26.0776 29.9468 26.2416 29.8648 26.4429 29.8051H26.428ZM35.2175 30.4239C35.2622 30.5656 35.292 30.7072 35.292 30.8563C35.292 31.0352 35.2697 31.2067 35.2324 31.3558C35.1951 31.5049 35.1206 31.6316 35.0162 31.7434C34.9118 31.8478 34.7627 31.9298 34.5838 31.9895C34.4049 32.0491 34.1738 32.0789 33.8979 32.0789H32.5262V29.7231H33.7488C34.0545 29.7231 34.308 29.753 34.5093 29.8126C34.7105 29.8722 34.8671 29.9542 34.9864 30.0586C35.0982 30.163 35.1802 30.2897 35.2324 30.4239H35.2175ZM52.282 24.9594H35.6126L30.4388 9.07275L25.3023 24.9668H8.62545L22.1116 34.7627L16.9602 50.6494L30.4537 40.8162L43.9771 50.627L38.8108 34.7478L52.2895 24.9445L52.282 24.9594ZM30.1481 36.7159H28.4111V33.5401H26.756L25.3321 36.7159H23.4236L25.1383 33.1301C24.6761 32.8766 24.3406 32.5635 24.1468 32.1982C23.953 31.8254 23.8486 31.3707 23.8486 30.8265C23.8486 30.5357 23.8933 30.2375 23.9902 29.9319C24.0871 29.6262 24.2586 29.3504 24.4972 29.1044C24.7432 28.8584 25.0787 28.6571 25.5111 28.5005C25.9434 28.344 26.4877 28.2694 27.1512 28.2694H30.1481V36.7234V36.7159ZM35.5977 36.7159L34.1738 33.5401H32.5188V36.7159H30.7817V28.262H33.7787C34.4422 28.262 34.9864 28.3365 35.4188 28.4931C35.8512 28.6496 36.1866 28.8509 36.4326 29.0969C36.6787 29.3429 36.8501 29.6188 36.9396 29.9244C37.0365 30.2301 37.0812 30.5283 37.0812 30.819C37.0812 31.3632 36.9843 31.818 36.783 32.1907C36.5892 32.5635 36.2537 32.8766 35.7915 33.1226L37.5062 36.7085H35.5977V36.7159Z" fill="var(--global--color-logo)"></path></svg>