<?xml version="1.0" encoding="utf-8"?>
<!-- Generator: Adobe Illustrator 19.2.1, SVG Export Plug-In . SVG Version: 6.00 Build 0)  -->
<svg version="1.1" id="layer" xmlns="http://www.w3.org/2000/svg" xmlns:xlink="http://www.w3.org/1999/xlink" x="0px" y="0px"
	 viewBox="0 0 652 652" style="enable-background:new 0 0 652 652;" xml:space="preserve">
<path fill="#fff" d="M362.7,227.1c-0.2-5,0.4-10,1.5-14.9c1.1-5,0.7-10.1-1-14.9c-0.3-6-2.5-11.7-6.4-16.2c-3.8-5.1-10-6.1-14.6-9.5
	s-10.3-4.1-15.9-4.1c-3.6-0.1-7.1-0.6-10.5-1.5c-5.2-0.9-10.5-0.4-15.4,1.5c-3.8,0.3-7.5,1.2-11.1,2.6c-4.1,2.3-9.2,3.8-12.3,8
	c-2.3,2.8-5.4,5.1-6.1,8.7c-0.9,4.4,0.6,9,3.8,12.1c1,1.3,3,1.3,3.6,2.8c-0.7,3-1.8,5.9-3,8.7c-1.8,3.3,3,5.1,1.3,8.5l-6.9,12.3
	c-1,1.7-1.6,3.7-1.8,5.7c0.8,3.3,4.9,2.1,6.9,4.1c1.5,1.8-0.8,3.3-1,5.1s2.1,2.1,1,3.6c-1.3,2.3,1,3.8,1.8,5.7
	c0.2,2.8-1.5,6.1,0.5,8c5.4,3.8,13.6,0.8,19.3,3.6c2.8,2.1,2.3,6.1,2.3,9.2c-1.5,13.4-8,24.9-16.4,35.4c-1,1.3-1.3,3-1,4.6
	c1.3,0.4,2.8,0.4,4.1,0c15.1-5.1,27.3-18.5,42.1-24.7c5.9-2.5,12.1-4.2,18.5-5.1c1.5-1.3,0.8-3.3,0.2-4.9c-3-8.2-6.7-16.4-6.1-25.7
	c0-3.3,3.8-4.1,6.1-5.4c3.8-1,6.4-5.1,8.2-8.5C358.1,236.9,362.1,232.8,362.7,227.1z"/>
<path fill="#fff" d="M551.7,335.8c-6,0.9-11.7,3.1-16.7,6.4v-7.5l-19,4.9v2.8l9.2,3v69.2l-9.2,3.8v3h30.7v-3l-11.6-3.8v-23.9
	c2.2,0.7,4.6,1.1,6.9,1c13.6,0,30.3-10.3,30.3-29.3C572.3,347.3,563.3,335.8,551.7,335.8z M541.2,386.1c-2-0.1-4-0.2-6.1-0.5v-40.9
	c2.9-1.3,6.1-1.9,9.2-1.8c10.5,0,17.5,9.2,17.5,22.9C561.8,380.8,554.1,386.1,541.2,386.1z"/>
<path fill="#fff" d="M609.3,306.5c-14.6,0-24.2,9.1-24.2,22.9v6.9H576v5.7h9.1v42.4l-9.1,4.1v3h29.8v-3l-11.3-4.1V342h15.9v-5.4h-15.9v-8.7
	c0-6.4,1.3-10.5,4.4-13.1c2.7-2.3,6.2-3.6,9.8-3.6h1.7l3,7.5h6.9v-10.3C616.7,307,613,306.4,609.3,306.5z"/>
<path fill="#fff" d="M52.9,348.6l-12.3-8.2c-8.3-5.4-10.1-8-10.1-13.4c0-8.2,5.7-11.8,17.5-11.8c2,0,4,0,6.1,0.2h1l5.7,14.6h4.3v-17.4l-1.8-0.2
	l-4.9-1c-1.5-0.2-3.6-0.8-6.1-1c-3.3-0.2-6.7-0.8-8.7-0.8c-13.4,0-22.4,8.7-22.4,21.6c-0.1,3.7,0.8,7.4,2.8,10.5
	c2.1,3.6,4.1,5.7,10.3,9.8l11.3,7.8c8.2,5.4,10,8.2,10,14.4c0,8.4-5.8,12.9-16.7,12.9c-3,0-5.7-0.2-8.5-0.5l-5.7-15.1h-4.6v18
	l1.3,0.2l6.7,1.5c4.6,1.2,9.3,1.9,14.1,2.1c15.1,0,24.9-8.7,24.9-22.4c0.2-4.4-1.1-8.7-3.6-12.3C61.4,354.3,60.3,353.5,52.9,348.6z"
	/>
<path fill="#fff" d="M113.5,384.6c-3.4,0.8-6.8,1.2-10.3,1.3c-6.9,0-11.1-1.8-14.6-6.4c-3.6-4.8-5.4-10.7-5.1-16.7c0-13.6,8-23.6,18.2-23.6h2.3
	l4.6,10.3h6.5v-12.1c-4.2-1.6-8.6-2.5-13.1-2.6c-17,0-28.3,12.1-28.3,30.3c0,15.9,9.2,27.3,22.4,27.3c4.5-0.1,8.9-0.9,13.1-2.6
	l5.4-1.8l1-0.2l-0.5-3.8L113.5,384.6z"/>
<path fill="#fff" d="M170.3,354.3c0-11.8-5.7-19.5-14.4-19.5c-3.6,0-8.2,1.8-15.7,6.1l-1.3,0.5v-37.9l-18.5,4.9v2.8l9.2,3.3v69.7l-8.7,4.4v3
	h25.9v-3l-7.7-4.4v-39.8c3.1-0.9,6.3-1.3,9.5-1.3c9.1,0,12.6,4.4,12.6,14.4v26.7l-8.2,4.4v3h26.2v-3l-8.7-4.4v-29.8H170.3z"/>
<path fill="#fff" d="M259.9,336.6h-21.2v2.8l8,3.8l-11.4,34.7l-0.6-1.3c-0.4-2.1-1-4.1-1.8-6.1l-11-34h-3l-15,41.1l-0.2-1.8l-1-3l-1-3l-9.1-27.3
	l8.2-3v-2.8h-25.1v2.8l6.7,3l17.5,49.1h4.6l13.4-37.8l12.3,37.8h4.9l18.5-48.5l6.4-3.8L259.9,336.6z"/>
<path fill="#fff" d="M298.3,379.7v-30.6c0-9.2-4.9-13.6-15.4-13.6c-6.2,0.3-12.4,1.6-18.2,3.8v10.5h6.1l4.4-9.5c0.9-0.2,1.9-0.3,2.8-0.2
	c8,0,10.5,2.3,10.5,9.5v12.6c-6,0.5-11.9,1.4-17.7,2.6c-7.2,1.8-11.3,6.1-11.3,13.1c-0.2,7.4,5.6,13.7,13,13.9c0.4,0,0.9,0,1.3,0
	c1.7,0.1,3.5-0.2,5.1-0.8c1.6-0.7,3.1-1.4,4.6-2.3l3.6-1.8l1.3-0.8c0.8,3.8,2.3,5.7,5.7,5.7h0.5c1.5-0.1,2.9-0.3,4.4-0.8l7.7-2.8
	V386l-6.1-1.8C298.4,383.1,298.3,382.8,298.3,379.7z M288.8,384.1c-0.5,0.2-0.5,0.2-0.8,0.2c-1.1,0.3-2.2,0.6-3.3,0.8
	c-1.4,0.3-2.7,0.5-4.1,0.5c-6.1,0-10-3.6-10-9.2c-0.2-4.3,2.9-8.1,7.2-8.7c3.6-1,7.3-1.8,11.1-2.3L288.8,384.1z"/>
<path fill="#fff" d="M330.5,341.1l-1,0.5v-7.3l-18.2,4.6v2.6l8.7,2.8v40l-8.7,4.1v2.8h29.4v-2.8l-10.8-4.1v-39.8c2.5-1.1,5.2-1.7,8-1.8h2.6
	l3,6.9h7.2v-12.8c-1.6-1.1-3.5-1.7-5.4-1.8C342.1,335,337.5,337.1,330.5,341.1z"/>
<polygon fill="#fff" points="356.8,352 360.4,352 365.5,341.7 384.3,341.7 354.4,387.7 354.4,391.5 396.8,391.5 396.8,374.3 393.5,374.3 
	387.6,386.4 366.8,386.4 396.8,340.2 396.8,336.6 356.8,336.6 "/>
<polygon fill="#fff" points="432.3,357.9 447.7,342.5 458,338.9 458,336 433.6,336 433.6,338.9 440.5,341.7 422.3,361.5 443.6,391.5 
	459.5,391.5 459.5,388.4 451.8,385.1 "/>
<polygon fill="#fff" points="420.7,302.9 402,307.5 402,310.1 411.5,313.2 411.5,384.6 402.5,388.4 402.5,391.5 429.7,391.5 429.7,388.4 
	420.7,384.6 "/>
<path fill="#fff" d="M485.5,334.5c-16.2,0-27,12.1-27,30.3c0,16.7,10.5,28.3,25.4,28.3c15.9,0,27.5-12.8,27.5-30.3
	C511.1,345.8,500.9,334.5,485.5,334.5z M485.2,387.7c-9.8,0-15.7-9.2-15.7-24.7c0-14.6,5.4-23.1,14.6-23.1c10,0,15.7,9.5,15.7,25.7
	C500.1,379.4,494.7,387.7,485.2,387.7L485.2,387.7z"/>
<path fill="#fff" d="M21.3,477.1v-32.6h13.5c7.5,0,12.3,4.4,12.3,11.1c0,8.5-6.7,11.3-13.1,11.3h-6.1v10h-6.6V477.1z M34.1,461.4
	c3.2,0.4,6-1.9,6.4-5c0-0.2,0-0.4,0-0.6c0-3.6-2.3-5.7-6.4-5.7h-6.4v11.3L34.1,461.4z"/>
<path fill="#fff" d="M91.9,477.1l-7.2-10.8h-6.7v10.8h-6.5v-32.6h14.9c3.5-0.3,6.9,1,9.5,3.3c1.9,2,2.9,4.7,2.8,7.5c0.3,4.5-2.6,8.7-6.9,10
	l-0.5,0.2l8,11.8h-7.5V477.1z M85.9,460.6c3.8,0,6.1-2.1,6.1-5.1c0-3.1-2.1-5.4-6.2-5.4H78v10.8h8L85.9,460.6z"/>
<path fill="#fff" d="M138.7,477.6c-9.2,0.3-16.9-6.9-17.2-16c0-0.2,0-0.4,0-0.6c0.1-9.4,7.8-17,17.3-16.8c0.1,0,0.1,0,0.2,0
	c9.2-0.3,16.9,6.9,17.2,16c0,0.2,0,0.4,0,0.6c-0.1,9.4-7.8,17-17.3,16.8C138.8,477.6,138.7,477.6,138.7,477.6z M138.7,449.6
	c-5.7-0.1-10.5,4.5-10.6,10.2c0,0.3,0,0.6,0,0.8c-0.2,5.9,4.5,10.9,10.4,11.1c0.1,0,0.2,0,0.3,0c5.7,0.1,10.5-4.5,10.6-10.2
	c0-0.3,0-0.6,0-0.8C149.4,454.7,144.6,449.8,138.7,449.6z"/>
<polygon fill="#fff" points="180.8,477.1 180.8,444.5 205.4,444.5 205.4,450.1 187.2,450.1 187.2,458.3 203.4,458.3 203.4,464 187.2,464 
	187.2,477.1 "/>
<polygon fill="#fff" points="233.5,477.1 233.5,444.5 257.9,444.5 257.9,449.8 239.9,449.8 239.9,457.8 255.8,457.8 255.8,463.5 239.9,463.5 
	239.9,471.4 258.1,471.4 258.1,477.1 "/>
<path fill="#fff" d="M297.4,477.6c-4.8,0.1-9.4-1.6-13.1-4.6l-0.5-0.2l3.8-4.4l0.2,0.2c2.6,2.3,6,3.6,9.5,3.6c3.8,0,5.4-1.8,5.4-3.6
	c0-2.3-1.5-3.3-7.2-4.9c-7.2-1.8-10.8-3.8-10.8-9.8c0-5.9,4.6-9.9,11.3-9.9c4.1,0,8,1.3,11.2,3.7l0.5,0.2l-3.3,4.9l-0.5-0.2
	c-2.4-1.7-5.3-2.6-8.2-2.8c-3.3,0-4.9,1.8-4.9,3.3c0,2.8,2.1,3.6,7.7,4.9c7.5,2.1,10.3,4.6,10.3,9.5
	C309.2,473.7,304.6,477.6,297.4,477.6z"/>
<path fill="#fff" d="M347.3,477.6c-4.8,0.1-9.4-1.6-13.1-4.6l-0.5-0.2l3.8-4.4l0.2,0.2c2.6,2.3,6,3.6,9.5,3.6c3.8,0,5.4-1.8,5.4-3.6
	c0-2.3-1.5-3.3-7.2-4.9c-7.2-1.8-10.8-3.8-10.8-9.8c0-5.9,4.6-9.9,11.3-9.9c4.1-0.1,8,1.2,11.3,3.6l0.5,0.2l-3.3,4.9l-0.5-0.2
	c-2.4-1.7-5.3-2.6-8.2-2.8c-3.3,0-4.9,1.8-4.9,3.3c0,2.8,2.1,3.6,7.7,4.9c7.5,2.1,10.3,4.6,10.3,9.5
	C359.3,473.7,354.7,477.6,347.3,477.6z"/>
<rect fill="#fff" x="386.3" y="444.5" width="6.4" height="32.6"/>
<path fill="#fff" d="M436.1,477.6c-9.2,0.3-16.9-6.9-17.2-16c0-0.2,0-0.4,0-0.6c0-9.4,7.7-17,17.1-17c0.1,0,0.2,0,0.3,0
	c9.2-0.3,16.9,6.9,17.2,16c0,0.2,0,0.4,0,0.6c0,9.4-7.7,17-17.1,17C436.4,477.6,436.3,477.6,436.1,477.6z M436.1,449.6
	c-5.7-0.1-10.5,4.5-10.6,10.2c0,0.3,0,0.6,0,0.8c-0.2,5.9,4.5,10.9,10.4,11.1c0.1,0,0.2,0,0.3,0c5.7,0.1,10.5-4.5,10.6-10.2
	c0-0.3,0-0.6,0-0.8C447,454.6,442.2,449.7,436.1,449.6C436.2,449.6,436.2,449.6,436.1,449.6z"/>
<polygon fill="#fff" points="500.9,477.1 483.7,454.7 483.7,477.1 477.5,477.1 477.5,444.5 483.7,444.5 500.1,466 500.1,444.5 506.3,444.5 
	506.3,477.1 "/>
<path fill="#fff" d="M557.6,477.1l-3-7.5h-14.9l-3,7.5h-6.4l13.8-33h6.1L564,477L557.6,477.1z M552.2,464l-5.1-12.8l-5.1,12.8H552.2z"/>
<polygon fill="#fff" points="588,477.1 588,444.5 594.4,444.5 594.4,471.2 611.1,471.2 611.1,477.1 "/>
</svg>
