<svg focusable="false" viewBox="0 0 40 32" xmlns="http://www.w3.org/2000/svg"><path d="M18.9 13.65c-.702 0-1.34.268-3.305 1.67v7.546c3.407-3.806 4.376-6.41 4.376-7.746-.003-.935-.437-1.47-1.071-1.47zm.268-5.008c0-1.34-1.536-2.438-3.573-2.571v6.978c2.57-1.502 3.572-3.008 3.572-4.407zm6.046-2.961c-.033-.134-.067-.184-.134-.2l-2.408-.636-.334-1.369c-.017-.067-.034-.117-.1-.133l-2.472-.668-.3-1.303a.183.183 0 00-.134-.167L12.914.015a.865.865 0 00-.318 0l-6.42 1.19a.183.183 0 00-.134.167L5.74 2.675l-2.471.667c-.067.016-.083.066-.1.133l-.334 1.37-2.402.635c-.066.017-.1.067-.133.2A17.155 17.155 0 000 8.92c0 9.62 5.01 17.97 12.492 22.946a.335.335 0 00.536 0c7.481-4.976 12.491-13.327 12.491-22.945 0-1.088-.102-2.173-.306-3.24zM11.817 27.44c0 .068-.067.1-.133.034-1.837-2.104-3.072-4.675-3.907-7.48l-1.269.804c-.334.234-.601.134-.804-.233C4.001 17.56 2.9 12.617 2.8 9.146a.601.601 0 01.167-.434c.455-.545.946-1.058 1.47-1.536.1-.1.2-.034.2.133 0 4.274.734 8.247 1.903 10.853.1.2.2.2.334.1l.367-.234c-.7-3.106-1.102-7.246-1.002-12.021 0-.168.034-.234.134-.3.512-.32 1.048-.599 1.602-.836.167-.067.201-.033.201.1-.094 6.945.476 11.752 1.709 15.592.033.1.133.066.133-.034-.067-1.402-.067-2.637-.067-4.14L9.884 4.4c0-.133.033-.2.167-.233.55-.136 1.107-.237 1.67-.301a.09.09 0 01.1.1l-.004 23.475zm2.005.034c-.067.067-.134.034-.134-.033V3.968a.09.09 0 01.1-.1c4.474.3 7.346 2.17 7.346 4.875a4.534 4.534 0 01-1.169 3.036c1.47.401 2.037 1.504 2.037 2.973.003 2.605-1.9 6.913-8.178 12.723h-.002z" fill="#FFF" fill-rule="nonzero"></path></svg>