<?xml version="1.0" standalone="no"?>
<!DOCTYPE svg PUBLIC "-//W3C//DTD SVG 20010904//EN"
 "http://www.w3.org/TR/2001/REC-SVG-20010904/DTD/svg10.dtd">
<svg version="1.0" xmlns="http://www.w3.org/2000/svg"
 width="260.000000pt" height="260.000000pt" viewBox="0 0 260.000000 260.000000"
 preserveAspectRatio="xMidYMid meet">

<g transform="translate(0.000000,260.000000) scale(0.100000,-0.100000)"
fill="#fff" stroke="none">
<path d="M2152 2320 c-28 -26 -29 -80 -4 -103 25 -23 78 -21 102 3 27 27 25
66 -5 95 -29 30 -64 32 -93 5z m88 -10 c39 -39 14 -100 -41 -100 -56 0 -82 73
-37 104 30 21 54 20 78 -4z"/>
<path d="M2160 2270 c0 -29 2 -30 43 -29 23 1 32 4 20 6 -13 2 -23 7 -23 10 0
2 10 14 23 24 l22 20 -22 -11 c-16 -7 -23 -7 -23 0 0 5 -9 10 -20 10 -16 0
-20 -7 -20 -30z m30 0 c0 -11 -4 -20 -10 -20 -5 0 -10 9 -10 20 0 11 5 20 10
20 6 0 10 -9 10 -20z"/>
<path d="M1539 2151 c-18 -14 -47 -20 -109 -24 -82 -5 -220 -31 -249 -47 -8
-4 -28 -3 -44 2 -41 15 -98 -4 -119 -39 -18 -31 -43 -141 -34 -150 3 -3 12 -1
19 6 11 8 22 6 48 -12 31 -21 35 -30 48 -101 9 -54 10 -81 3 -88 -6 -6 -55
-15 -109 -20 -157 -14 -281 -37 -372 -68 l-86 -29 -42 43 c-53 55 -70 111 -54
182 7 28 18 60 26 70 19 25 19 34 0 34 -24 0 -73 -78 -85 -136 -15 -71 0 -143
44 -217 l33 -55 -27 -44 c-54 -87 -100 -251 -115 -408 -3 -36 -15 -105 -27
-155 -17 -75 -26 -95 -54 -121 -55 -52 -39 -77 47 -76 52 1 59 7 59 51 0 88
65 266 127 347 30 40 88 79 138 93 l38 10 -5 -91 c-5 -83 -3 -99 27 -187 24
-73 37 -99 56 -108 32 -17 71 -16 95 1 24 18 11 44 -32 66 -38 19 -41 25 -49
78 -5 36 -3 48 13 66 11 11 27 36 36 54 l17 32 52 -31 c29 -16 62 -35 73 -41
18 -9 22 -22 28 -98 4 -48 14 -112 23 -141 11 -37 17 -106 20 -219 l4 -166
-31 -39 c-43 -54 -38 -85 15 -104 52 -18 110 -8 130 22 12 18 12 30 3 62 -20
72 -3 313 33 471 l31 139 97 3 c53 1 107 3 121 5 23 2 25 -2 36 -78 7 -44 13
-155 13 -247 1 -189 -2 -183 85 -194 59 -9 106 10 106 41 0 23 -50 75 -72 75
-17 0 -3 183 21 270 11 42 23 114 27 160 3 47 15 112 26 145 16 47 20 85 20
175 -1 110 -10 162 -53 307 -10 34 -11 55 -1 101 7 32 12 94 13 138 0 50 6 95
18 124 16 43 19 45 54 43 20 -1 37 2 37 8 0 15 -81 99 -111 115 -37 19 -52 18
-80 -5z"/>
<path d="M1900 2095 c0 -25 5 -45 10 -45 6 0 3 -14 -6 -32 -20 -39 -14 -110
13 -146 51 -68 192 -90 281 -43 59 30 88 92 72 150 -6 22 -15 43 -20 46 -15 9
-12 25 5 25 11 0 15 12 15 45 l0 45 -185 0 -185 0 0 -45z m275 -75 c20 -39 19
-73 -3 -93 -41 -37 -170 -28 -192 13 -14 27 -12 62 6 88 13 20 24 22 94 22 78
0 80 -1 95 -30z"/>
<path d="M1900 1727 c0 -25 4 -48 9 -52 6 -3 4 -17 -5 -33 -33 -64 -5 -152 61
-189 52 -29 162 -32 215 -5 73 36 100 123 60 190 l-20 32 26 0 c39 0 74 -42
74 -89 0 -22 -4 -51 -10 -65 -8 -22 -6 -26 13 -31 58 -12 60 -12 70 30 13 62
4 151 -20 183 -44 59 -68 65 -280 70 l-193 5 0 -46z m253 -75 c29 -31 32 -77
8 -101 -30 -30 -141 -31 -171 -1 -23 23 -26 57 -8 95 10 23 16 25 83 25 57 0
75 -4 88 -18z"/>
<path d="M1950 1372 c-64 -32 -79 -111 -35 -176 30 -44 30 -46 5 -46 -17 0
-20 -7 -20 -45 l0 -45 185 0 185 0 0 45 0 45 -119 0 -119 0 -26 31 c-28 32
-34 77 -14 97 8 8 55 12 145 12 l133 0 0 50 0 50 -142 0 c-116 0 -150 -3 -178
-18z"/>
<path d="M1900 983 l0 -48 108 -39 c59 -21 111 -42 115 -46 4 -4 -43 -25 -105
-47 l-113 -40 -3 -52 -3 -51 63 24 c35 13 114 43 176 67 l113 43 70 -32 c78
-34 83 -32 77 34 l-3 38 -245 98 c-134 54 -246 98 -247 98 -2 0 -3 -21 -3 -47z"/>
<path d="M2188 561 l-3 -100 -138 85 c-75 46 -139 84 -142 84 -3 0 -5 -69 -5
-154 0 -151 0 -154 23 -160 54 -14 56 -12 59 78 l3 84 135 -89 c74 -48 138
-88 143 -89 4 0 7 78 7 174 l0 174 -31 6 c-17 3 -35 6 -40 6 -5 0 -10 -45 -11
-99z"/>
</g>
</svg>
