<?xml version="1.0" encoding="UTF-8"?>
<svg id="Layer_2" data-name="Layer 2" xmlns="http://www.w3.org/2000/svg" viewBox="0 0 77.15 24.2" width="100px" >
  <defs>
    <style>
      .cls-1 {
        fill: #231f20;
        stroke-width: 0px;
      }
    </style>
  </defs>
  <g id="Layer_1-2" data-name="Layer 1">
    <g>
      <path class="cls-1" d="m13.22,7.55l.33,5.5h-.33c-.52-1.26-1.23-2.43-2.12-3.51-1.38-1.68-2.74-2.52-4.08-2.52-.62,0-1.16.21-1.62.64-.48.44-.72.97-.72,1.62,0,1.33,1.05,2.34,3.15,3.02l2.29.75c1.56.5,2.77,1.12,3.63,1.85.96.82,1.44,1.9,1.44,3.25,0,1.24-.38,2.36-1.13,3.37-.66.89-1.63,1.58-2.91,2.06-1.11.41-2.24.62-3.4.62-1.07,0-2.6-.28-4.59-.85-1.07-.3-2.01-.61-2.83-.91l-.33-6.68h.33c.84,1.95,1.81,3.57,2.91,4.87,1.75,2.09,3.46,3.14,5.13,3.14.79,0,1.43-.26,1.89-.77.38-.4.57-.95.57-1.63,0-.74-.22-1.33-.65-1.76-.48-.47-1.31-.91-2.48-1.34l-1.65-.59c-1.94-.7-3.39-1.44-4.36-2.24-1.06-.86-1.58-1.98-1.58-3.37,0-1.67.77-3.03,2.3-4.08,1.34-.93,2.97-1.39,4.9-1.39,1.61,0,3.58.32,5.91.96Z"/>
      <path class="cls-1" d="m23.67,6.8h4.21l-.83,1.57h-3.38v9.64c0,1.24.19,2.11.57,2.61.46.62,1.2.93,2.22.93.53,0,1.17-.12,1.91-.38l.16.28c-.76.56-1.45,1.01-2.06,1.36-1.37.76-2.68,1.14-3.92,1.14-1.34,0-2.44-.36-3.32-1.08-.59-.5-.98-1.08-1.18-1.75-.21-.73-.31-1.65-.31-2.76v-10h-4.12c4.09-1.87,7.44-4.66,10.03-8.36v6.8Z"/>
      <path class="cls-1" d="m43,13.53h-11.09c.03,4.17,1.89,6.26,5.59,6.26,1.39,0,2.59-.34,3.58-1.03.6-.42,1.18-1.06,1.75-1.91l.31.15c-.65,1.7-1.39,3.04-2.21,4.03-1.59,1.95-3.72,2.92-6.4,2.92s-4.74-.88-6.45-2.63c-1.58-1.62-2.37-3.61-2.37-5.96,0-2.77,1.03-5.03,3.1-6.8,1.71-1.47,3.71-2.21,6-2.21,1.72,0,3.27.43,4.64,1.29,1.4.89,2.41,2.09,3.02,3.59.24.59.42,1.35.54,2.29Zm-5.95-.39c0-1.91-.08-3.25-.23-4.03-.31-1.52-1-2.29-2.09-2.29-1.26,0-2.11,1.02-2.53,3.07-.2.94-.29,2.02-.29,3.25h5.15Z"/>
      <path class="cls-1" d="m41.21,2.98l-.03-.34c3.33-.71,6.27-1.5,8.8-2.37v18.96c0,1.11.04,1.92.13,2.42.1.64.4,1.07.91,1.29.3.13.77.21,1.4.25v.33h-10.81v-.33c1.03-.05,1.7-.3,2.01-.74.22-.32.35-.83.41-1.54.02-.35.03-.91.03-1.68V7.46c0-1.18-.07-2.04-.21-2.58-.19-.65-.53-1.15-1.05-1.49-.37-.24-.9-.38-1.6-.41Z"/>
      <path class="cls-1" d="m50.72,2.98l-.03-.34c3.33-.71,6.27-1.5,8.8-2.37v18.96c0,1.11.04,1.92.13,2.42.1.64.4,1.07.91,1.29.3.13.77.21,1.4.25v.33h-10.81v-.33c1.03-.05,1.7-.3,2.01-.74.22-.32.35-.83.41-1.54.02-.35.03-.91.03-1.68V7.46c0-1.18-.07-2.04-.21-2.58-.19-.65-.53-1.15-1.05-1.49-.37-.24-.9-.38-1.6-.41Z"/>
      <path class="cls-1" d="m69.11,11.48c.42-1.32.95-2.38,1.57-3.2.98-1.3,2.12-1.94,3.43-1.94.85,0,1.57.28,2.17.85.58.57.87,1.26.87,2.07,0,.73-.21,1.36-.64,1.88-.5.61-1.15.91-1.94.91-.6,0-1.13-.18-1.58-.56-.17-.15-.5-.54-.96-1.16-.34-.45-.68-.67-1.03-.67-.41,0-.76.23-1.03.7-.28.49-.45,1-.51,1.54-.08.74-.11,1.79-.11,3.14v4.18c0,1.12.04,1.93.13,2.42.12.64.46,1.07,1.01,1.29.34.13.85.21,1.54.25v.33h-11.27v-.33c1.13-.05,1.86-.3,2.19-.74.24-.32.39-.83.44-1.54.03-.36.05-.92.05-1.68v-5.49c0-1.18-.07-2.04-.21-2.58-.19-.65-.53-1.15-1.05-1.49-.37-.24-.9-.38-1.6-.41l-.03-.34c1.91-.45,3.39-.83,4.46-1.16.81-.25,2.18-.72,4.12-1.42v5.15Z"/>
    </g>
  </g>
</svg>